<?xml version="1.0" standalone="no"?>
<!DOCTYPE svg PUBLIC "-//W3C//DTD SVG 20010904//EN"
 "http://www.w3.org/TR/2001/REC-SVG-20010904/DTD/svg10.dtd">
<svg version="1.0" xmlns="http://www.w3.org/2000/svg"
 width="278.000000pt" height="278.000000pt" viewBox="0 0 278.000000 278.000000"
 preserveAspectRatio="xMidYMid meet">
<metadata>
Created by potrace 1.14, written by Peter Selinger 2001-2017
</metadata>
<g transform="translate(0.000000,278.000000) scale(0.100000,-0.100000)"
fill="#000000" stroke="none">
<path d="M411 2584 c-40 -34 -44 -98 -8 -132 l23 -22 966 0 967 0 20 26 c33
41 28 96 -10 128 l-31 26 -948 0 -948 0 -31 -26z"/>
<path d="M592 1401 c3 -901 3 -910 24 -937 36 -49 69 -67 136 -73 l63 -6 3
-63 3 -62 74 0 75 0 0 65 0 65 420 0 420 0 0 -65 0 -65 75 0 75 0 0 65 0 65
59 0 c64 0 107 22 145 73 21 28 21 33 24 938 l2 909 -800 0 -800 0 2 -909z
m1420 742 c17 -15 18 -53 18 -793 0 -590 -3 -779 -12 -788 -17 -17 -1239 -17
-1256 0 -9 9 -12 197 -12 787 0 707 1 776 17 793 15 17 48 18 621 18 549 0
607 -2 624 -17z"/>
<path d="M852 1663 l3 -388 240 0 240 0 3 388 2 387 -245 0 -245 0 2 -387z
m382 105 c19 -27 22 -139 5 -187 -14 -39 -51 -51 -79 -26 -17 15 -20 31 -20
108 0 70 4 95 17 109 22 25 59 23 77 -4z"/>
<path d="M1440 1350 l0 -700 245 0 245 0 0 700 0 700 -245 0 -245 0 0 -700z
m184 104 c12 -12 16 -37 16 -101 0 -94 -13 -123 -56 -123 -38 0 -54 36 -54
120 0 85 16 120 55 120 13 0 31 -7 39 -16z"/>
<path d="M850 1085 l0 -115 245 0 245 0 0 115 0 115 -245 0 -245 0 0 -115z"/>
<path d="M850 775 l0 -125 245 0 245 0 0 125 0 125 -245 0 -245 0 0 -125z"/>
</g>
</svg>
